<?xml version="1.0" encoding="UTF-8"?>
<svg width="258px" height="258px" viewBox="0 0 258 258" version="1.1" xmlns="http://www.w3.org/2000/svg" xmlns:xlink="http://www.w3.org/1999/xlink">
    <!-- Generator: Sketch 57.1 (83088) - https://sketch.com -->
    <title>pebbles-thin-circ</title>
    <desc>Created with Sketch.</desc>
    <g id="Spread" stroke="none" stroke-width="1" fill="none" fill-rule="evenodd">
        <g id="pebbles-thin-circ" transform="translate(0.000000, 1.000000)">
            <g id="grid" transform="translate(1.000000, 0.000000)"></g>
            <circle id="Oval" stroke="#000000" stroke-width="8" cx="128" cy="128" r="124"></circle>
            <g id="pebbles-thin" transform="translate(39.000000, 56.000000)" fill="#000000">
                <g id="pebbles-thinner">
                    <path d="M115.268704,87.5426727 C151.847702,91.2567445 178.461538,102.592373 178.461538,116 C178.461538,132.426931 138.511562,145.74359 89.2307692,145.74359 C39.9499762,145.74359 0,132.426931 0,116 C0,102.592297 26.6141377,91.2566163 63.1934545,87.5426097 C71.296867,88.6344582 80.0703794,89.2307692 89.2307692,89.2307692 C98.2655813,89.2307692 106.92405,88.6506956 114.934483,87.5883581 Z" id="peb-bot"></path>
                    <path d="M89.2307692,38.6666667 C128.655404,38.6666667 160.615385,49.3199936 160.615385,62.4615385 C160.615385,75.6030833 128.655404,86.2564103 89.2307692,86.2564103 C49.8061348,86.2564103 17.8461538,75.6030833 17.8461538,62.4615385 C17.8461538,49.3199936 49.8061348,38.6666667 89.2307692,38.6666667 Z" id="peb-med"></path>
                    <g id="peb-top" transform="translate(35.692308, 0.000000)">
                        <ellipse id="peb-sm" cx="53.5384615" cy="17.8461538" rx="53.5384615" ry="17.8461538"></ellipse>
                    </g>
                </g>
            </g>
        </g>
    </g>
</svg>