<?xml version="1.0" encoding="UTF-8"?>
<svg width="256px" height="256px" viewBox="0 0 256 256" version="1.1" xmlns="http://www.w3.org/2000/svg" xmlns:xlink="http://www.w3.org/1999/xlink">
    <!-- Generator: Sketch 57.1 (83088) - https://sketch.com -->
    <title>pebbles-thin-sq</title>
    <desc>Created with Sketch.</desc>
    <defs>
        <filter x="0.0%" y="0.0%" width="100.0%" height="100.0%" filterUnits="objectBoundingBox" id="filter-1">
            <feGaussianBlur stdDeviation="0" in="SourceGraphic"></feGaussianBlur>
        </filter>
    </defs>
    <g id="Spread" stroke="none" stroke-width="1" fill="none" fill-rule="evenodd">
        <g id="pebbles-thin-sq">
            <rect id="Rectangle" stroke="#000000" stroke-width="8" filter="url(#filter-1)" x="4" y="4" width="248" height="248"></rect>
            <g id="pebbles-thin" transform="translate(33.000000, 56.000000)" fill="#000000">
                <g id="pebbles-thinner">
                    <path d="M122.718722,92.6011788 C161.664131,96.5295915 190,108.520492 190,122.703226 C190,140.079411 147.467051,154.165591 95,154.165591 C42.5329488,154.165591 0,140.079411 0,122.703226 C0,108.520492 28.3358689,96.5295915 67.2812782,92.6011788 C75.9083161,93.7564445 85.2482508,94.3870968 95,94.3870968 C104.618959,94.3870968 113.837243,93.7735027 122.365591,92.6497766 Z" id="peb-bot"></path>
                    <path d="M95,40.9010753 C136.973641,40.9010753 171,52.17002 171,66.0709677 C171,79.9719155 136.973641,91.2408602 95,91.2408602 C53.026359,91.2408602 19,79.9719155 19,66.0709677 C19,52.17002 53.026359,40.9010753 95,40.9010753 Z" id="peb-med"></path>
                    <g id="peb-top" transform="translate(38.000000, 0.000000)">
                        <ellipse id="peb-sm" cx="57" cy="18.8774194" rx="57" ry="18.8774194"></ellipse>
                    </g>
                </g>
            </g>
        </g>
    </g>
</svg>