<?xml version="1.0" encoding="UTF-8"?>
<svg width="258px" height="258px" viewBox="0 0 258 258" version="1.1" xmlns="http://www.w3.org/2000/svg" xmlns:xlink="http://www.w3.org/1999/xlink">
    <!-- Generator: Sketch 57.1 (83088) - https://sketch.com -->
    <title>pebbles-circ-pad</title>
    <desc>Created with Sketch.</desc>
    <g id="Page-1" stroke="none" stroke-width="1" fill="none" fill-rule="evenodd">
        <g id="pebbles-circ-pad" transform="translate(1.000000, 1.000000)">
            <g id="pebbles" transform="translate(45.000000, 52.000000)" fill="#000000">
                <g id="pebbles-thinner">
                    <path d="M116.915384,83.4602323 C146.153178,87.7996917 166.555851,97.6228986 166.555851,109.046053 C166.555851,124.488225 129.271054,137.006579 83.2779255,137.006579 C37.2847973,137.006579 0,124.488225 0,109.046053 C0,97.6228986 20.402673,87.7996917 49.6404673,83.4602323 C59.6839799,85.5150431 71.1304948,86.6776316 83.2779255,86.6776316 C95.2361389,86.6776316 106.515102,85.5509797 116.446127,83.5567285 Z" id="peb-bot"></path>
                    <path d="M104.298889,37.4849266 C130.792734,40.4403396 149.900266,48.8295304 149.900266,58.7171053 C149.900266,71.0708431 120.072428,81.0855263 83.2779255,81.0855263 C46.4834229,81.0855263 16.6555851,71.0708431 16.6555851,58.7171053 C16.6555851,48.8295258 35.7631344,40.4403318 62.2569991,37.4849225 C68.7403648,38.5551588 75.8382547,39.1447368 83.2779255,39.1447368 C90.6368261,39.1447368 97.6613267,38.5678911 104.088067,37.5203075 Z" id="peb-med"></path>
                    <g id="peb-top" transform="translate(33.311170, 0.000000)">
                        <ellipse id="peb-sm" cx="49.9667553" cy="16.7763158" rx="49.9667553" ry="16.7763158"></ellipse>
                    </g>
                </g>
            </g>
            <g id="grid"></g>
            <circle id="Oval" stroke="#000000" stroke-width="7.5" cx="128" cy="128" r="116.25"></circle>
        </g>
    </g>
</svg>