<?xml version="1.0" encoding="UTF-8"?>
<svg width="258px" height="258px" viewBox="0 0 258 258" version="1.1" xmlns="http://www.w3.org/2000/svg" xmlns:xlink="http://www.w3.org/1999/xlink">
    <!-- Generator: Sketch 57.1 (83088) - https://sketch.com -->
    <title>pebbles-circ</title>
    <desc>Created with Sketch.</desc>
    <g id="Page-1" stroke="none" stroke-width="1" fill="none" fill-rule="evenodd">
        <g id="pebbles-circ" transform="translate(0.000000, 1.000000)">
            <g id="pebbles" transform="translate(39.577348, 47.000000)" fill="#000000">
                <g id="pebbles-thinner">
                    <path d="M124.950589,88.691865 C156.196323,93.3034665 178,103.742225 178,115.881148 C178,132.291248 138.153343,145.594262 89,145.594262 C39.8466573,145.594262 0,132.291248 0,115.881148 C0,103.742225 21.8036771,93.3034665 53.049411,88.691865 C63.7835925,90.8750632 76.0172182,92.1106557 89,92.1106557 C101.779869,92.1106557 113.833817,90.9133844 124.447208,88.7941319 Z" id="peb-bot"></path>
                    <path d="M111.465811,39.834566 C139.779812,42.9752747 160.2,51.8902649 160.2,62.397541 C160.2,75.5256211 128.322674,86.1680328 89,86.1680328 C49.6773258,86.1680328 17.8,75.5256211 17.8,62.397541 C17.8,51.8902649 38.2201878,42.9752747 66.5341888,39.834566 C73.4637194,40.971841 81.0492312,41.5983607 89,41.5983607 C96.8645348,41.5983607 104.371693,40.9853577 111.240018,39.8721107 Z" id="peb-med"></path>
                    <g id="peb-top" transform="translate(35.600000, 0.000000)">
                        <ellipse id="peb-sm" cx="53.4" cy="17.8278689" rx="53.4" ry="17.8278689"></ellipse>
                    </g>
                </g>
            </g>
            <g id="grid" transform="translate(1.000000, 0.000000)"></g>
            <circle id="Oval" stroke="#000000" stroke-width="8" cx="128" cy="128" r="124"></circle>
        </g>
    </g>
</svg>