<?xml version="1.0" encoding="UTF-8"?>
<svg width="258px" height="258px" viewBox="0 0 258 258" version="1.1" xmlns="http://www.w3.org/2000/svg" xmlns:xlink="http://www.w3.org/1999/xlink">
    <!-- Generator: Sketch 57.1 (83088) - https://sketch.com -->
    <title>pebbles-thick-pad</title>
    <desc>Created with Sketch.</desc>
    <g id="Page-1" stroke="none" stroke-width="1" fill="none" fill-rule="evenodd">
        <g id="pebbles-thick-pad" transform="translate(1.000000, 1.000000)">
            <g id="grid"></g>
            <g id="pebbles-thick" transform="translate(17.000000, 39.000000)" fill="#000000">
                <g id="pebbles-thinner">
                    <path d="M164.958955,111.339693 C198.98492,117.625935 222,129.673389 222,143.502762 C222,163.8244 172.303607,180.298343 111,180.298343 C49.6963928,180.298343 0,163.8244 0,143.502762 C0,129.673389 23.0150797,117.625935 57.0410446,111.339693 C72.6036019,115.394091 91.1239343,117.745856 111,117.745856 C130.862369,117.745856 149.370872,115.397331 164.92613,111.34828 Z" id="peb-bot"></path>
                    <path d="M149.772405,50.7809569 C179.387362,55.5530296 199.8,65.6216595 199.8,77.2707182 C199.8,93.5280284 160.042886,106.707182 111,106.707182 C61.9571142,106.707182 22.2,93.5280284 22.2,77.2707182 C22.2,65.6216595 42.6126383,55.5530296 72.2275946,50.7809569 C83.6388594,53.5880251 96.8795596,55.1933702 111,55.1933702 C124.732008,55.1933702 137.632011,53.6751316 148.826334,51.0110178 Z" id="peb-med"></path>
                    <g id="peb-top" transform="translate(44.400000, 0.000000)">
                        <ellipse id="peb-sm" cx="66.6" cy="22.0773481" rx="66.6" ry="22.0773481"></ellipse>
                    </g>
                </g>
            </g>
        </g>
    </g>
</svg>