<?xml version="1.0" encoding="UTF-8"?>
<svg width="256px" height="210px" viewBox="0 0 256 210" version="1.1" xmlns="http://www.w3.org/2000/svg" xmlns:xlink="http://www.w3.org/1999/xlink">
    <!-- Generator: Sketch 57.1 (83088) - https://sketch.com -->
    <title>pebbles-thick</title>
    <desc>Created with Sketch.</desc>
    <g id="Page-1" stroke="none" stroke-width="1" fill="none" fill-rule="evenodd">
        <g id="pebbles-thick" fill="#000000">
            <g id="pebbles-thinner">
                <path d="M190.222061,129.104843 C229.459692,136.394069 256,150.363898 256,166.4 C256,189.964149 198.692448,209.066667 128,209.066667 C57.307552,209.066667 0,189.964149 0,166.4 C0,150.363898 26.540308,136.394069 65.7779392,129.104843 C83.7237831,133.806412 105.080233,136.533333 128,136.533333 C150.904353,136.533333 172.247492,133.810078 190.185087,129.114962 Z" id="peb-bot"></path>
                <path d="M172.712838,58.8839193 C206.862166,64.4175745 230.4,76.092528 230.4,89.6 C230.4,108.451319 184.553958,123.733333 128,123.733333 C71.4460416,123.733333 25.6,108.451319 25.6,89.6 C25.6,76.092528 49.1378338,64.4175745 83.2871621,58.8839193 C96.44674,62.1383026 111.716077,64 128,64 C143.835108,64 158.710787,62.239512 171.619557,59.1503133 Z" id="peb-med"></path>
                <g id="peb-top" transform="translate(51.200000, 0.000000)">
                    <ellipse id="peb-sm" cx="76.8" cy="25.6" rx="76.8" ry="25.6"></ellipse>
                </g>
            </g>
        </g>
    </g>
</svg>