<?xml version="1.0" encoding="UTF-8"?>
<svg width="258px" height="258px" viewBox="0 0 258 258" version="1.1" xmlns="http://www.w3.org/2000/svg" xmlns:xlink="http://www.w3.org/1999/xlink">
    <!-- Generator: Sketch 57.1 (83088) - https://sketch.com -->
    <title>pebbles-thick-circ-pad</title>
    <desc>Created with Sketch.</desc>
    <g id="Spread" stroke="none" stroke-width="1" fill="none" fill-rule="evenodd">
        <g id="pebbles-thick-circ-pad" transform="translate(1.000000, 1.000000)">
            <g id="grid"></g>
            <circle id="Oval" stroke="#000000" stroke-width="7.5" cx="128" cy="128" r="116.25"></circle>
            <g id="pebbles-thick" transform="translate(45.000000, 52.000000)" fill="#000000">
                <g id="pebbles-thinner">
                    <path d="M124.317923,84.3757475 C149.961991,89.1395446 167.307692,98.2695547 167.307692,108.75 C167.307692,124.150248 129.85459,136.634615 83.6538462,136.634615 C37.4531027,136.634615 0,124.150248 0,108.75 C0,98.2695547 17.3457009,89.1395446 42.9897688,84.3757475 C54.7177528,87.4486574 68.6749662,89.2307692 83.6538462,89.2307692 C98.622887,89.2307692 112.571603,87.4509978 124.294641,84.382525 Z" id="peb-bot"></path>
                    <path d="M112.876314,38.4834256 C135.194143,42.0999606 150.576923,49.7300196 150.576923,58.5576923 C150.576923,70.8778906 120.614441,80.8653846 83.6538462,80.8653846 C46.6932514,80.8653846 16.7307692,70.8778906 16.7307692,58.5576923 C16.7307692,49.7300656 32.1133894,42.10004 54.4310302,38.4834821 C63.0321883,40.6101992 73.0114726,41.8269231 83.6538462,41.8269231 C94.0028127,41.8269231 103.724748,40.6763638 112.161219,38.6574313 Z" id="peb-med"></path>
                    <g id="peb-top" transform="translate(33.461538, 0.000000)">
                        <ellipse id="peb-sm" cx="50.1923077" cy="16.7307692" rx="50.1923077" ry="16.7307692"></ellipse>
                    </g>
                </g>
            </g>
        </g>
    </g>
</svg>