<?xml version="1.0" encoding="UTF-8"?>
<svg width="256px" height="210px" viewBox="0 0 256 210" version="1.1" xmlns="http://www.w3.org/2000/svg" xmlns:xlink="http://www.w3.org/1999/xlink">
    <!-- Generator: Sketch 57.1 (83088) - https://sketch.com -->
    <title>pebbles</title>
    <desc>Created with Sketch.</desc>
    <g id="Spread" stroke="none" stroke-width="1" fill="none" fill-rule="evenodd">
        <g id="pebbles" fill="#000000">
            <g id="pebbles-thinner">
                <path d="M179.672793,127.552242 C224.605249,134.184193 255.960006,149.197067 255.960006,166.655166 C255.960006,190.25545 198.661407,209.38726 127.980003,209.38726 C57.2985991,209.38726 0,190.25545 0,166.655166 C0,149.197067 31.354757,134.184193 76.2872128,127.552242 C91.7220645,130.692788 109.312481,132.469491 127.980003,132.469491 C146.357168,132.469491 163.690474,130.747628 178.952292,127.699812 Z" id="peb-bot"></path>
                <path d="M160.28645,57.288443 C201.000769,61.8053824 230.364006,74.6264328 230.364006,89.737397 C230.364006,108.617624 184.525126,123.923072 127.980003,123.923072 C71.4348799,123.923072 25.5960006,108.617624 25.5960006,89.737397 C25.5960006,74.6264328 54.9592369,61.8053824 95.6735567,57.288443 C105.637487,58.9237585 116.546089,59.8249313 127.980003,59.8249313 C139.289028,59.8249313 150.084153,58.9433375 159.96065,57.3423147 Z" id="peb-med"></path>
                <g id="peb-top" transform="translate(51.192001, 0.000000)">
                    <ellipse id="peb-sm" cx="76.7880019" cy="25.6392563" rx="76.7880019" ry="25.6392563"></ellipse>
                </g>
            </g>
        </g>
    </g>
</svg>