<?xml version="1.0" encoding="UTF-8"?>
<svg width="258px" height="258px" viewBox="0 0 258 258" version="1.1" xmlns="http://www.w3.org/2000/svg" xmlns:xlink="http://www.w3.org/1999/xlink">
    <!-- Generator: Sketch 57.1 (83088) - https://sketch.com -->
    <title>pebbles-pad</title>
    <desc>Created with Sketch.</desc>
    <g id="Page-1" stroke="none" stroke-width="1" fill="none" fill-rule="evenodd">
        <g id="pebbles-pad" transform="translate(1.000000, 1.000000)" fill="#000000">
            <g id="pebbles" transform="translate(17.000000, 38.000000)">
                <g id="pebbles-thinner">
                    <path d="M155.835592,110.711669 C194.805878,116.468095 222,129.4987 222,144.651639 C222,165.135971 172.303607,181.741803 111,181.741803 C49.6963928,181.741803 0,165.135971 0,144.651639 C0,129.4987 27.1941222,116.468095 66.1644082,110.711669 C79.5516887,113.437286 94.8087158,114.979508 111,114.979508 C126.938938,114.979508 141.972513,113.484983 155.209439,110.839572 Z" id="peb-bot"></path>
                    <path d="M139.018836,49.7244914 C174.33197,53.6449304 199.8,64.7733253 199.8,77.8893443 C199.8,94.2768098 160.042886,107.561475 111,107.561475 C61.9571142,107.561475 22.2,94.2768098 22.2,77.8893443 C22.2,64.7733253 47.6680296,53.6449304 82.9811644,49.7244914 C91.6231366,51.1441474 101.083792,51.9262295 111,51.9262295 C120.808577,51.9262295 130.171437,51.1610328 138.73755,49.7713934 Z" id="peb-med"></path>
                    <g id="peb-top" transform="translate(44.400000, 0.000000)">
                        <ellipse id="peb-sm" cx="66.6" cy="22.2540984" rx="66.6" ry="22.2540984"></ellipse>
                    </g>
                </g>
            </g>
        </g>
    </g>
</svg>