<?xml version="1.0" encoding="UTF-8"?>
<svg width="258px" height="258px" viewBox="0 0 258 258" version="1.1" xmlns="http://www.w3.org/2000/svg" xmlns:xlink="http://www.w3.org/1999/xlink">
    <!-- Generator: Sketch 57.1 (83088) - https://sketch.com -->
    <title>pebbles-thick-circ</title>
    <desc>Created with Sketch.</desc>
    <g id="Spread" stroke="none" stroke-width="1" fill="none" fill-rule="evenodd">
        <g id="pebbles-thick-circ" transform="translate(0.000000, 1.000000)">
            <g id="grid" transform="translate(1.000000, 0.000000)"></g>
            <circle id="Oval" stroke="#000000" stroke-width="8" cx="128" cy="128" r="124"></circle>
            <g id="pebbles-thick" transform="translate(40.000000, 47.000000)" fill="#000000">
                <g id="pebbles-thinner">
                    <path d="M132.606865,90.000998 C159.959944,95.0824372 178.461538,104.821005 178.461538,116 C178.461538,132.426931 138.511562,145.74359 89.2307692,145.74359 C39.9499762,145.74359 0,132.426931 0,116 C0,104.821005 18.501594,95.0824372 45.8546735,90.000998 C58.3644178,93.2784165 73.2526613,95.1794872 89.2307692,95.1794872 C105.197746,95.1794872 120.076377,93.2810643 132.58095,90.0080267 Z" id="peb-bot"></path>
                    <path d="M120.400827,41.0488942 C144.206822,44.9064937 160.615385,53.0452785 160.615385,62.4615385 C160.615385,75.6030833 128.655404,86.2564103 89.2307692,86.2564103 C49.8061348,86.2564103 17.8461538,75.6030833 17.8461538,62.4615385 C17.8461538,53.0452785 34.2547167,44.9064937 58.0607116,41.0488942 C67.2344704,43.3175624 77.8789767,44.6153846 89.2307692,44.6153846 C100.269667,44.6153846 110.639732,43.3881213 119.638633,41.2345934 Z" id="peb-med"></path>
                    <g id="peb-top" transform="translate(35.692308, 0.000000)">
                        <ellipse id="peb-sm" cx="53.5384615" cy="17.8461538" rx="53.5384615" ry="17.8461538"></ellipse>
                    </g>
                </g>
            </g>
        </g>
    </g>
</svg>