<?xml version="1.0" encoding="UTF-8"?>
<svg width="2100px" height="245px" viewBox="0 0 2100 245" version="1.1" xmlns="http://www.w3.org/2000/svg" xmlns:xlink="http://www.w3.org/1999/xlink">
    <!-- Generator: Sketch 57.1 (83088) - https://sketch.com -->
    <title>Group</title>
    <desc>Created with Sketch.</desc>
    <g id="Page-1" stroke="none" stroke-width="1" fill="none" fill-rule="evenodd">
        <g id="Group" fill="#000000">
            <g id="pebbles-thin" transform="translate(0.000000, 1.000000)">
                <path d="M150.047996,153.880509 C172.101515,153.880509 192.869783,151.757899 211.054635,148.013423 C263.245649,155.784407 299.607367,173.214246 299.607367,193.469626 C299.607367,220.962567 232.617972,243.25 149.982367,243.25 C67.3467611,243.25 0.357366771,220.962567 0.357366771,193.469626 C0.357366771,173.204529 36.7539808,155.767685 88.9852169,148.000086 C107.183684,151.753551 127.971898,153.880509 150.047996,153.880509 Z" id="peb-bot"></path>
                <path d="M188.465384,66.5974878 C236.042915,71.8598385 270.357367,86.8017059 270.357367,104.412579 C270.357367,126.414179 216.79943,144.25 150.732367,144.25 C84.6653036,144.25 31.1073668,126.414179 31.1073668,104.412579 C31.1073668,86.8017059 65.4218183,71.8598385 112.999349,66.5974878 C124.638153,68.5014912 137.378631,69.5507706 150.732367,69.5507706 C163.945779,69.5507706 176.558754,68.5234273 188.098408,66.6577154 Z" id="peb-med"></path>
                <g id="peb-top" transform="translate(61.107367, 0.000000)">
                    <ellipse id="peb-sm" cx="89.625" cy="30" rx="89.625" ry="30"></ellipse>
                </g>
            </g>
            <g id="pebbles-med-thin" transform="translate(450.000000, 0.000000)">
                <path d="M150.316117,159.797131 C177.211054,159.797131 202.269087,156.592988 223.315848,151.070555 C268.853512,159.60325 299.607367,175.841551 299.607367,194.469626 C299.607367,221.962567 232.617972,244.25 149.982367,244.25 C67.3467611,244.25 0.357366771,221.962567 0.357366771,194.469626 C0.357366771,175.788233 31.2875229,159.510314 77.0396402,150.995079 C98.1422054,156.564669 123.302593,159.797131 150.316117,159.797131 Z" id="peb-bot"></path>
                <path d="M151.044867,74.8759281 C169.349734,74.8759281 186.560588,72.8684866 201.544217,69.3392654 C242.205284,75.6995577 270.357367,89.4612224 270.357367,105.412579 C270.357367,127.414179 216.79943,145.25 150.732367,145.25 C84.6653036,145.25 31.1073668,127.414179 31.1073668,105.412579 C31.1073668,89.4121993 59.4327545,75.6149912 100.295476,69.2786796 C115.337867,72.8461103 132.638262,74.8759281 151.044867,74.8759281 Z" id="peb-med"></path>
                <g id="peb-top" transform="translate(61.107367, 0.000000)">
                    <ellipse id="peb-sm" cx="89.625" cy="30" rx="89.625" ry="30"></ellipse>
                </g>
            </g>
            <g id="pebbles-medium" transform="translate(900.000000, 1.000000)">
                <path d="M150.316117,163.797131 C181.385011,163.797131 210.09015,159.459801 233.31472,152.120916 C273.29769,161.054799 299.607367,176.239996 299.607367,193.469626 C299.607367,220.962567 232.617972,243.25 149.982367,243.25 C67.3467611,243.25 0.357366771,220.962567 0.357366771,193.469626 C0.357366771,176.183744 26.839117,160.955666 67.0413522,152.031076 C90.3136371,159.425208 119.123574,163.797131 150.316117,163.797131 Z" id="peb-bot"></path>
                <path d="M151.044867,79.8759281 C174.694145,79.8759281 196.600325,76.4836128 214.536725,70.7111095 C248.080355,77.7660589 270.357367,90.2229569 270.357367,104.412579 C270.357367,126.414179 216.79943,144.25 150.732367,144.25 C84.6653036,144.25 31.1073668,126.414179 31.1073668,104.412579 C31.1073668,90.1695043 53.5525309,77.6722327 87.3063521,70.6294346 C105.288827,76.4524745 127.287297,79.8759281 151.044867,79.8759281 Z" id="peb-med"></path>
                <g id="peb-top" transform="translate(61.107367, 0.000000)">
                    <ellipse id="peb-sm" cx="89.625" cy="30" rx="89.625" ry="30"></ellipse>
                </g>
            </g>
            <g id="pebbles-med-thick" transform="translate(1350.000000, 0.000000)">
                <path d="M150.316117,169.797131 C185.053756,169.797131 216.93833,164.321254 241.908641,155.190037 C277.023968,164.298625 299.607367,178.506687 299.607367,194.469626 C299.607367,221.962567 232.617972,244.25 149.982367,244.25 C67.3467611,244.25 0.357366771,221.962567 0.357366771,194.469626 C0.357366771,178.447451 23.1086852,164.1932 58.4492198,155.087815 C83.4599769,164.280999 115.451028,169.797131 150.316117,169.797131 Z" id="peb-bot"></path>
                <path d="M151.044867,84.8759281 C177.632851,84.8759281 202.11341,80.5606021 221.591537,73.31452 C251.16778,80.5658037 270.357367,92.2429005 270.357367,105.412579 C270.357367,127.414179 216.79943,145.25 150.732367,145.25 C84.6653036,145.25 31.1073668,127.414179 31.1073668,105.412579 C31.1073668,92.1870086 50.4601799,80.4667158 80.2495821,73.2209741 C99.7689932,80.5239708 124.344273,84.8759281 151.044867,84.8759281 Z" id="peb-med"></path>
                <g id="peb-top" transform="translate(61.107367, 0.000000)">
                    <ellipse id="peb-sm" cx="89.625" cy="30" rx="89.625" ry="30"></ellipse>
                </g>
            </g>
            <g id="pebbles-thick" transform="translate(1800.000000, 0.000000)">
                <path d="M150.316117,180.797131 C191.702135,180.797131 229.173485,172.640264 256.312637,159.449726 C283.078996,168.441377 299.607367,180.813321 299.607367,194.469626 C299.607367,221.962567 232.617972,244.25 149.982367,244.25 C67.3467611,244.25 0.357366771,221.962567 0.357366771,194.469626 C0.357366771,180.745995 17.0491101,168.31942 44.0466359,159.314516 C71.2072856,172.585423 108.791208,180.797131 150.316117,180.797131 Z" id="peb-bot"></path>
                <path d="M151.044867,92.8759281 C182.863926,92.8759281 211.790492,86.6838102 233.26746,76.5781267 C256.119212,83.8318776 270.357367,94.0685006 270.357367,105.412579 C270.357367,127.414179 216.79943,145.25 150.732367,145.25 C84.6653036,145.25 31.1073668,127.414179 31.1073668,105.412579 C31.1073668,94.0063726 45.5019047,83.7197852 68.5714366,76.4575344 C90.0732932,86.635339 119.101512,92.8759281 151.044867,92.8759281 Z" id="peb-med"></path>
                <g id="peb-top" transform="translate(61.107367, 0.000000)">
                    <ellipse id="peb-sm" cx="89.625" cy="30" rx="89.625" ry="30"></ellipse>
                </g>
            </g>
        </g>
    </g>
</svg>