<?xml version="1.0" encoding="UTF-8"?>
<svg width="2100px" height="243px" viewBox="0 0 2100 243" version="1.1" xmlns="http://www.w3.org/2000/svg" xmlns:xlink="http://www.w3.org/1999/xlink">
    <!-- Generator: Sketch 57.1 (83088) - https://sketch.com -->
    <title>pebbles-row</title>
    <desc>Created with Sketch.</desc>
    <g id="Page-1" stroke="none" stroke-width="1" fill="none" fill-rule="evenodd">
        <g id="pebbles-thin" fill="#000000">
            <path d="M150.047996,152.880509 C172.101515,152.880509 192.869783,150.757899 211.054635,147.013423 C263.245649,154.784407 299.607367,172.214246 299.607367,192.469626 C299.607367,219.962567 232.617972,242.25 149.982367,242.25 C67.3467611,242.25 0.357366771,219.962567 0.357366771,192.469626 C0.357366771,172.204529 36.7539808,154.767685 88.9852169,147.000086 C107.183684,150.753551 127.971898,152.880509 150.047996,152.880509 Z" id="peb-bot"></path>
            <path d="M191.926673,66.000197 C237.698272,71.5911468 270.357367,86.2317375 270.357367,103.412579 C270.357367,125.414179 216.79943,143.25 150.732367,143.25 C84.6653036,143.25 31.1073668,125.414179 31.1073668,103.412579 C31.1073668,86.2317375 63.7664619,71.5911468 109.538061,66.000197 C122.093996,68.2809427 136.042101,69.5507706 150.732367,69.5507706 C165.046897,69.5507706 178.656747,68.3450691 190.960687,66.1739308 Z" id="peb-med" opacity="0.895600818"></path>
            <g id="peb-top" transform="translate(61.107367, 0.000000)">
                <ellipse id="peb-sm" cx="89.625" cy="30" rx="89.625" ry="30"></ellipse>
            </g>
        </g>
        <g id="pebbles-med-thin" transform="translate(450.000000, 0.000000)" fill="#000000">
            <path d="M150.316117,157.797131 C177.211054,157.797131 202.269087,154.592988 223.315848,149.070555 C268.853512,157.60325 299.607367,173.841551 299.607367,192.469626 C299.607367,219.962567 232.617972,242.25 149.982367,242.25 C67.3467611,242.25 0.357366771,219.962567 0.357366771,192.469626 C0.357366771,173.788233 31.2875229,157.510314 77.0396402,148.995079 C98.1422054,154.564669 123.302593,157.797131 150.316117,157.797131 Z" id="peb-bot"></path>
            <path d="M151.044867,74.8759281 C171.339655,74.8759281 190.289641,72.4083053 206.350407,68.1349527 C244.407769,74.8016174 270.357367,88.0979078 270.357367,103.412579 C270.357367,125.414179 216.79943,143.25 150.732367,143.25 C84.6653036,143.25 31.1073668,125.414179 31.1073668,103.412579 C31.1073668,88.0470316 57.2296634,74.7132976 95.4918524,68.0677858 C111.605564,72.3829047 130.645893,74.8759281 151.044867,74.8759281 Z" id="peb-med" opacity="0.895600818"></path>
            <g id="peb-top" transform="translate(61.107367, 0.000000)">
                <ellipse id="peb-sm" cx="89.625" cy="30" rx="89.625" ry="30"></ellipse>
            </g>
        </g>
        <g id="pebbles-medium" transform="translate(900.000000, 0.000000)" fill="#000000">
            <path d="M150.316117,162.797131 C181.385011,162.797131 210.09015,158.459801 233.31472,151.120916 C273.29769,160.054799 299.607367,175.239996 299.607367,192.469626 C299.607367,219.962567 232.617972,242.25 149.982367,242.25 C67.3467611,242.25 0.357366771,219.962567 0.357366771,192.469626 C0.357366771,175.183744 26.839117,159.955666 67.0413522,151.031076 C90.3136371,158.425208 119.123574,162.797131 150.316117,162.797131 Z" id="peb-bot"></path>
            <path d="M151.044867,79.8759281 C175.509697,79.8759281 198.109134,76.2456086 216.378097,70.1054598 C248.892987,77.2252765 270.357367,89.4841693 270.357367,103.412579 C270.357367,125.414179 216.79943,143.25 150.732367,143.25 C84.6653036,143.25 31.1073668,125.414179 31.1073668,103.412579 C31.1073668,89.4298778 52.7394048,77.1297341 85.4666266,70.0211223 C103.778823,76.2131173 126.4708,79.8759281 151.044867,79.8759281 Z" id="peb-med" opacity="0.895600818"></path>
            <g id="peb-top" transform="translate(61.107367, 0.000000)">
                <ellipse id="peb-sm" cx="89.625" cy="30" rx="89.625" ry="30"></ellipse>
            </g>
        </g>
        <g id="pebbles-med-thick" transform="translate(1350.000000, 0.000000)" fill="#000000">
            <path d="M150.316117,167.797131 C185.053756,167.797131 216.93833,162.321254 241.908641,153.190037 C277.023968,162.298625 299.607367,176.506687 299.607367,192.469626 C299.607367,219.962567 232.617972,242.25 149.982367,242.25 C67.3467611,242.25 0.357366771,219.962567 0.357366771,192.469626 C0.357366771,176.447451 23.1086852,162.1932 58.4492198,153.087815 C83.4599769,162.280999 115.451028,167.797131 150.316117,167.797131 Z" id="peb-bot"></path>
            <path d="M151.044867,84.8759281 C179.07657,84.8759281 204.765771,80.0792367 224.719794,72.1084378 C252.513807,79.4016712 270.357367,90.7131818 270.357367,103.412579 C270.357367,125.414179 216.79943,143.25 150.732367,143.25 C84.6653036,143.25 31.1073668,125.414179 31.1073668,103.412579 C31.1073668,90.6554676 49.1134798,79.2988865 77.1237754,72.0076316 C97.1110147,80.0393851 122.896959,84.8759281 151.044867,84.8759281 Z" id="peb-med" opacity="0.895600818"></path>
            <g id="peb-top" transform="translate(61.107367, 0.000000)">
                <ellipse id="peb-sm" cx="89.625" cy="30" rx="89.625" ry="30"></ellipse>
            </g>
        </g>
        <g id="pebbles-thick" transform="translate(1800.000000, 0.000000)" fill="#000000">
            <path d="M150.316117,178.797131 C191.702135,178.797131 229.173485,170.640264 256.312637,157.449726 C283.078996,166.441377 299.607367,178.813321 299.607367,192.469626 C299.607367,219.962567 232.617972,242.25 149.982367,242.25 C67.3467611,242.25 0.357366771,219.962567 0.357366771,192.469626 C0.357366771,178.745995 17.0491101,166.31942 44.0466359,157.314516 C71.2072856,170.585423 108.791208,178.797131 150.316117,178.797131 Z" id="peb-bot"></path>
            <path d="M151.044867,89.8759281 C182.232481,89.8759281 210.641264,83.9271353 231.980071,74.1751234 C255.58336,81.450566 270.357367,91.8570053 270.357367,103.412579 C270.357367,125.414179 216.79943,143.25 150.732367,143.25 C84.6653036,143.25 31.1073668,125.414179 31.1073668,103.412579 C31.1073668,91.7956359 46.0387144,81.3400652 69.8589559,74.0581197 C91.2259816,83.8804463 119.735104,89.8759281 151.044867,89.8759281 Z" id="peb-med" opacity="0.895600818"></path>
            <g id="peb-top" transform="translate(61.107367, 0.000000)">
                <ellipse id="peb-sm" cx="89.625" cy="30" rx="89.625" ry="30"></ellipse>
            </g>
        </g>
    </g>
</svg>