<?xml version="1.0" standalone="no"?>
<!DOCTYPE svg PUBLIC "-//W3C//DTD SVG 20010904//EN"
 "http://www.w3.org/TR/2001/REC-SVG-20010904/DTD/svg10.dtd">
<svg version="1.0" xmlns="http://www.w3.org/2000/svg"
 width="700.000000pt" height="700.000000pt" viewBox="0 0 700.000000 700.000000"
 preserveAspectRatio="xMidYMid meet">
<metadata>
Created by potrace 1.11, written by Peter Selinger 2001-2013
</metadata>
<g transform="translate(0.000000,700.000000) scale(0.100000,-0.100000)"
fill="#000000" stroke="none">
<path d="M3169 5936 c-2 -2 -44 -7 -93 -11 -49 -4 -98 -8 -110 -10 -11 -2 -52
-7 -91 -11 -38 -4 -72 -8 -75 -9 -7 -1 -98 -16 -140 -21 -19 -3 -43 -7 -52
-10 -10 -3 -30 -7 -45 -10 -78 -13 -250 -59 -343 -90 -260 -89 -431 -198 -495
-316 -121 -223 138 -450 670 -586 66 -17 145 -35 175 -41 30 -6 69 -13 85 -16
60 -12 221 -35 283 -41 35 -3 72 -7 82 -9 122 -24 727 -24 945 0 22 2 69 7
105 10 36 4 108 13 160 21 52 9 108 17 124 20 15 2 35 6 45 8 9 3 32 8 51 11
100 17 362 93 445 130 288 127 407 240 408 385 1 123 -85 218 -309 338 -103
55 -387 146 -554 176 -19 3 -46 8 -60 11 -50 10 -136 24 -180 29 -25 4 -56 8
-70 10 -14 3 -56 8 -95 11 -38 4 -90 9 -115 12 -50 6 -746 14 -751 9z"/>
<path d="M2670 4587 c-3 -2 -29 -7 -58 -11 -76 -9 -117 -15 -207 -31 -44 -8
-96 -17 -115 -20 -19 -3 -73 -15 -120 -26 -47 -11 -94 -22 -104 -24 -335 -71
-689 -233 -849 -390 -210 -206 -149 -447 161 -637 147 -90 395 -190 607 -244
133 -34 226 -56 295 -69 114 -22 119 -23 165 -30 22 -3 54 -8 70 -10 68 -11
85 -14 136 -20 102 -12 114 -14 199 -20 47 -4 96 -9 110 -11 147 -23 831 -23
1090 1 148 13 178 16 210 20 19 3 58 7 85 10 28 3 64 7 80 10 54 9 89 15 130
21 120 18 359 67 411 84 18 6 45 13 60 16 62 11 335 109 431 154 209 98 360
220 418 335 24 49 29 73 30 130 0 76 -13 116 -58 184 -170 252 -714 465 -1447
567 -96 13 -167 15 -221 6 -35 -6 -91 -14 -124 -17 -33 -3 -73 -8 -90 -10
-185 -24 -699 -25 -920 -1 -16 2 -59 6 -95 10 -36 3 -77 9 -90 11 -40 9 -185
18 -190 12z"/>
<path d="M2170 2920 c-364 -63 -569 -113 -825 -201 -438 -150 -712 -332 -814
-540 -38 -80 -40 -87 -38 -169 3 -121 40 -195 150 -304 87 -86 96 -94 167
-141 308 -204 879 -385 1485 -470 23 -3 50 -7 62 -9 12 -3 50 -7 85 -11 75 -7
144 -15 179 -21 14 -2 59 -6 100 -9 40 -3 94 -7 119 -10 260 -26 1036 -27
1320 0 19 2 72 6 117 10 46 3 91 8 100 9 17 3 47 7 179 21 28 3 60 7 71 9 11
3 44 7 74 11 30 4 103 16 164 26 60 11 123 22 139 24 15 2 35 7 45 9 9 3 30 8
48 11 69 11 394 97 498 130 365 119 626 262 779 426 190 204 182 418 -24 619
-67 65 -78 75 -156 127 -241 163 -641 309 -1104 404 -80 16 -161 32 -180 35
-19 2 -46 7 -60 10 -87 20 -139 21 -230 4 -88 -17 -166 -29 -215 -35 -11 -1
-42 -5 -70 -9 -76 -11 -104 -14 -185 -22 -41 -3 -91 -8 -110 -10 -238 -24
-851 -24 -1070 0 -19 2 -71 7 -115 10 -89 7 -340 42 -419 57 -28 6 -64 12 -81
14 -16 3 -41 7 -55 9 -14 2 -72 -4 -130 -14z"/>
</g>
</svg>
