<?xml version="1.0" encoding="UTF-8"?>
<svg width="258px" height="258px" viewBox="0 0 258 258" version="1.1" xmlns="http://www.w3.org/2000/svg" xmlns:xlink="http://www.w3.org/1999/xlink">
    <!-- Generator: Sketch 57.1 (83088) - https://sketch.com -->
    <title>pebbles-thick-circ-pad</title>
    <desc>Created with Sketch.</desc>
    <g id="Spread" stroke="none" stroke-width="1" fill="none" fill-rule="evenodd">
        <g id="pebbles-thick-circ-pad" transform="translate(1.000000, 1.000000)">
            <g id="grid"></g>
            <circle id="Oval" stroke="#000000" stroke-width="7.5" cx="128" cy="128" r="116.25"></circle>
            <g id="pebbles-thick" transform="translate(45.000000, 52.000000)" fill="#000000">
                <g transform="translate(0.000000, 0.557692)">
                    <path d="M123.069136,83.033008 C149.397257,87.7296416 167.307692,96.9849274 167.307692,107.634615 C167.307692,123.034863 129.85459,135.519231 83.6538462,135.519231 C37.4531027,135.519231 0,123.034863 0,107.634615 C0,96.9850618 17.9099836,87.7298752 44.2375597,83.0331858 C55.6807005,85.9011619 69.1872265,87.5576923 83.6538462,87.5576923 C98.0992786,87.5576923 111.587428,85.9060105 123.018826,83.0457156 Z" id="peb-bot"></path>
                    <path d="M112.904323,37.3725825 C135.207012,40.9909609 150.576923,48.6183284 150.576923,57.4423077 C150.576923,69.762506 120.614441,79.75 83.6538462,79.75 C46.6932514,79.75 16.7307692,69.762506 16.7307692,57.4423077 C16.7307692,48.6183783 32.1005063,40.9910471 54.4029912,37.3726439 C62.9711737,39.494326 72.9720168,40.7115385 83.6538462,40.7115385 C94.1229346,40.7115385 103.937892,39.5423275 112.390361,37.4996275 Z" id="peb-med"></path>
                    <g id="peb-top" transform="translate(33.461538, 0.000000)">
                        <ellipse id="peb-sm" cx="50.1923077" cy="16.7307692" rx="50.1923077" ry="16.7307692"></ellipse>
                    </g>
                </g>
            </g>
        </g>
    </g>
</svg>