<?xml version="1.0" encoding="UTF-8"?>
<svg width="258px" height="258px" viewBox="0 0 258 258" version="1.1" xmlns="http://www.w3.org/2000/svg" xmlns:xlink="http://www.w3.org/1999/xlink">
    <!-- Generator: Sketch 57.1 (83088) - https://sketch.com -->
    <title>pebbles-thick-pad</title>
    <desc>Created with Sketch.</desc>
    <g id="Spread" stroke="none" stroke-width="1" fill="none" fill-rule="evenodd">
        <g id="pebbles-thick-pad" transform="translate(1.000000, 1.000000)">
            <g id="grid"></g>
            <g id="pebbles-thick" transform="translate(17.000000, 39.000000)" fill="#000000">
                <g transform="translate(0.000000, 0.735912)">
                    <path d="M163.298283,109.567197 C198.233921,115.764617 222,127.977745 222,142.030939 C222,162.352577 172.303607,178.826519 111,178.826519 C49.6963928,178.826519 0,162.352577 0,142.030939 C0,127.977745 23.7660795,115.764617 58.7017173,109.567197 C73.8844084,113.35245 91.8052985,115.538122 111,115.538122 C130.167595,115.538122 148.064973,113.358619 163.233256,109.584272 Z" id="peb-bot"></path>
                    <path d="M149.812462,49.3155923 C179.405766,54.090287 199.8,64.155089 199.8,75.798895 C199.8,92.0562052 160.042886,105.235359 111,105.235359 C61.9571142,105.235359 22.2,92.0562052 22.2,75.798895 C22.2,64.155089 42.5942336,54.090287 72.1875385,49.3155923 C83.5554377,52.1152589 96.8258926,53.721547 111,53.721547 C124.891397,53.721547 137.914831,52.1786964 149.130383,49.4832197 Z" id="peb-med"></path>
                    <g id="peb-top" transform="translate(44.400000, 0.000000)">
                        <ellipse id="peb-sm" cx="66.6" cy="22.0773481" rx="66.6" ry="22.0773481"></ellipse>
                    </g>
                </g>
            </g>
        </g>
    </g>
</svg>