<?xml version="1.0" encoding="UTF-8"?>
<svg width="258px" height="258px" viewBox="0 0 258 258" version="1.1" xmlns="http://www.w3.org/2000/svg" xmlns:xlink="http://www.w3.org/1999/xlink">
    <!-- Generator: Sketch 57.1 (83088) - https://sketch.com -->
    <title>pebbles-thick-circ</title>
    <desc>Created with Sketch.</desc>
    <g id="Spread" stroke="none" stroke-width="1" fill="none" fill-rule="evenodd">
        <g id="pebbles-thick-circ" transform="translate(0.000000, 1.000000)">
            <g id="grid" transform="translate(1.000000, 0.000000)"></g>
            <circle id="Oval" stroke="#000000" stroke-width="8" cx="128" cy="128" r="124"></circle>
            <g id="pebbles-thick" transform="translate(40.000000, 47.000000)" fill="#000000">
                <g transform="translate(0.000000, 0.594872)">
                    <path d="M131.272355,88.5682938 C159.356443,93.5779585 178.461538,103.450402 178.461538,114.810256 C178.461538,131.237187 138.511562,144.553846 89.2307692,144.553846 C39.9499762,144.553846 0,131.237187 0,114.810256 C0,103.450288 19.1054774,93.577761 47.1900266,88.5681435 C59.3946348,91.6281375 73.8007192,93.3948718 89.2307692,93.3948718 C104.639231,93.3948718 119.026589,91.6330778 131.220081,88.5820967 Z" id="peb-bot"></path>
                    <path d="M120.430845,39.8640178 C144.220614,43.7235929 160.615385,51.8594933 160.615385,61.2717949 C160.615385,74.4133397 128.655404,85.0666667 89.2307692,85.0666667 C49.8061348,85.0666667 17.8461538,74.4133397 17.8461538,61.2717949 C17.8461538,51.8594933 34.2409244,43.7235929 58.0306936,39.8640178 C67.1694073,42.1272999 77.8369009,43.425641 89.2307692,43.425641 C100.397797,43.425641 110.867085,42.1784827 119.883052,39.9996027 Z" id="peb-med"></path>
                    <g id="peb-top" transform="translate(35.692308, 0.000000)">
                        <ellipse id="peb-sm" cx="53.5384615" cy="17.8461538" rx="53.5384615" ry="17.8461538"></ellipse>
                    </g>
                </g>
            </g>
        </g>
    </g>
</svg>