<?xml version="1.0" encoding="UTF-8"?>
<svg width="256px" height="256px" viewBox="0 0 256 256" version="1.1" xmlns="http://www.w3.org/2000/svg" xmlns:xlink="http://www.w3.org/1999/xlink">
    <!-- Generator: Sketch 57.1 (83088) - https://sketch.com -->
    <title>pebbles-sq</title>
    <desc>Created with Sketch.</desc>
    <defs>
        <filter x="0.0%" y="0.0%" width="100.0%" height="100.0%" filterUnits="objectBoundingBox" id="filter-1">
            <feGaussianBlur stdDeviation="0" in="SourceGraphic"></feGaussianBlur>
        </filter>
    </defs>
    <g id="Spread" stroke="none" stroke-width="1" fill="none" fill-rule="evenodd">
        <g id="pebbles-sq">
            <g id="pebbles" transform="translate(33.149171, 55.466667)" fill="#000000">
                <g transform="translate(0.000000, 0.635897)">
                    <path d="M133.412967,93.6397258 C166.744434,98.5773407 190,109.743836 190,122.728205 C190,140.288028 147.467051,154.523077 95,154.523077 C42.5329488,154.523077 0,140.288028 0,122.728205 C0,109.743836 23.2555659,98.5773407 56.587033,93.6397258 C68.0369258,95.9710866 81.1138986,97.2923077 95,97.2923077 C108.536499,97.2923077 121.304099,96.0367764 132.545854,93.8143996 Z" id="peb-bot"></path>
                    <path d="M119.043946,41.3607373 C149.233738,44.7277925 171,54.2618867 171,65.4974359 C171,79.5452941 136.973641,90.9333333 95,90.9333333 C53.026359,90.9333333 19,79.5452941 19,65.4974359 C19,54.2618867 40.7662623,44.7277925 70.9560542,41.3607373 C78.3510666,42.5718536 86.4748096,43.2410256 95,43.2410256 C103.226834,43.2410256 111.079827,42.6178721 118.264558,41.4861911 Z" id="peb-med"></path>
                    <g id="peb-top" transform="translate(38.000000, 0.000000)">
                        <ellipse id="peb-sm" cx="57" cy="19.0769231" rx="57" ry="19.0769231"></ellipse>
                    </g>
                </g>
            </g>
            <rect id="Rectangle" stroke="#000000" stroke-width="8" filter="url(#filter-1)" x="4" y="4" width="248" height="248"></rect>
        </g>
    </g>
</svg>