<?xml version="1.0" encoding="UTF-8"?>
<svg width="256px" height="210px" viewBox="0 0 256 210" version="1.1" xmlns="http://www.w3.org/2000/svg" xmlns:xlink="http://www.w3.org/1999/xlink">
    <!-- Generator: Sketch 57.1 (83088) - https://sketch.com -->
    <title>pebbles-thick</title>
    <desc>Created with Sketch.</desc>
    <g id="Spread" stroke="none" stroke-width="1" fill="none" fill-rule="evenodd">
        <g id="pebbles-thick" fill="#000000">
            <g transform="translate(0.000000, 0.853333)">
                <path d="M188.30862,127.049814 C228.594384,134.23613 256,148.397911 256,164.693333 C256,188.257483 198.692448,207.36 128,207.36 C57.307552,207.36 0,188.257483 0,164.693333 C0,148.397911 27.4056165,134.23613 67.6913801,127.049814 C85.1991296,131.438806 105.865083,133.973333 128,133.973333 C150.103172,133.973333 170.74159,131.44607 188.232944,127.06949 Z" id="peb-bot"></path>
                <path d="M172.758889,57.1847197 C206.883325,62.7214056 230.4,74.3919338 230.4,87.8933333 C230.4,106.744653 184.553958,122.026667 128,122.026667 C71.4460416,122.026667 25.6,106.744653 25.6,87.8933333 C25.6,74.3919338 49.1166748,62.7214056 83.241111,57.1847197 C96.3512602,60.4306302 111.654573,62.2933333 128,62.2933333 C144.018909,62.2933333 159.036922,60.5043062 171.970171,57.3787404 Z" id="peb-med"></path>
                <g id="peb-top" transform="translate(51.200000, 0.000000)">
                    <ellipse id="peb-sm" cx="76.8" cy="25.6" rx="76.8" ry="25.6"></ellipse>
                </g>
            </g>
        </g>
    </g>
</svg>